<svg width="18" height="26" viewBox="0 0 18 26" fill="none" xmlns="http://www.w3.org/2000/svg">
<path d="M6.5 16.75C6.5 17.0815 6.6317 17.3995 6.86612 17.6339C7.10054 17.8683 7.41848 18 7.75 18H10.25C10.5815 18 10.8995 17.8683 11.1339 17.6339C11.3683 17.3995 11.5 17.0815 11.5 16.75C11.5 16.4185 11.3683 16.1005 11.1339 15.8661C10.8995 15.6317 10.5815 15.5 10.25 15.5H7.75C7.41848 15.5 7.10054 15.6317 6.86612 15.8661C6.6317 16.1005 6.5 16.4185 6.5 16.75ZM7.75 1.75C7.75 1.41848 7.6183 1.10054 7.38388 0.866116C7.14946 0.631695 6.83152 0.5 6.5 0.5H1.5C1.16848 0.5 0.850537 0.631695 0.616117 0.866116C0.381696 1.10054 0.25 1.41848 0.25 1.75L0.25 24.25C0.25 24.5815 0.381696 24.8995 0.616117 25.1339C0.850537 25.3683 1.16848 25.5 1.5 25.5H6.5C6.83152 25.5 7.14946 25.3683 7.38388 25.1339C7.6183 24.8995 7.75 24.5815 7.75 24.25C7.75 23.9185 7.8817 23.6005 8.11612 23.3661C8.35054 23.1317 8.66848 23 9 23C9.33152 23 9.64946 23.1317 9.88388 23.3661C10.1183 23.6005 10.25 23.9185 10.25 24.25C10.25 24.5815 10.3817 24.8995 10.6161 25.1339C10.8505 25.3683 11.1685 25.5 11.5 25.5H16.5C16.8315 25.5 17.1495 25.3683 17.3839 25.1339C17.6183 24.8995 17.75 24.5815 17.75 24.25V1.75C17.75 1.41848 17.6183 1.10054 17.3839 0.866116C17.1495 0.631695 16.8315 0.5 16.5 0.5H11.5C11.1685 0.5 10.8505 0.631695 10.6161 0.866116C10.3817 1.10054 10.25 1.41848 10.25 1.75C10.25 2.08152 10.1183 2.39946 9.88388 2.63388C9.64946 2.8683 9.33152 3 9 3C8.66848 3 8.35054 2.8683 8.11612 2.63388C7.8817 2.39946 7.75 2.08152 7.75 1.75ZM5.475 3C5.73776 3.72394 6.21704 4.34943 6.84771 4.79145C7.47838 5.23347 8.22985 5.4706 9 5.4706C9.77015 5.4706 10.5216 5.23347 11.1523 4.79145C11.783 4.34943 12.2622 3.72394 12.525 3H15.25L15.25 15.5C14.9185 15.5 14.6005 15.6317 14.3661 15.8661C14.1317 16.1005 14 16.4185 14 16.75C14 17.0815 14.1317 17.3995 14.3661 17.6339C14.6005 17.8683 14.9185 18 15.25 18V23H12.525C12.2622 22.2761 11.783 21.6506 11.1523 21.2086C10.5216 20.7665 9.77015 20.5294 9 20.5294C8.22985 20.5294 7.47838 20.7665 6.84771 21.2086C6.21704 21.6506 5.73776 22.2761 5.475 23H2.75L2.75 18C3.08152 18 3.39946 17.8683 3.63388 17.6339C3.8683 17.3995 4 17.0815 4 16.75C4 16.4185 3.8683 16.1005 3.63388 15.8661C3.39946 15.6317 3.08152 15.5 2.75 15.5L2.75 3H5.475Z" fill="white"/>
</svg>
