<svg width="25" height="25" viewBox="0 0 25 25" fill="none" xmlns="http://www.w3.org/2000/svg">
<path d="M16.9688 9.07292L19.3646 11.4583L9.37503 11.4583C9.09876 11.4583 8.83381 11.5681 8.63846 11.7634C8.44311 11.9588 8.33336 12.2237 8.33336 12.5C8.33336 12.7763 8.44311 13.0412 8.63846 13.2366C8.83381 13.4319 9.09876 13.5417 9.37503 13.5417L19.3646 13.5417L16.9688 15.9271C16.8711 16.0239 16.7936 16.1391 16.7408 16.2661C16.6879 16.393 16.6607 16.5292 16.6607 16.6667C16.6607 16.8042 16.6879 16.9403 16.7408 17.0673C16.7936 17.1942 16.8711 17.3094 16.9688 17.4063C17.0656 17.5039 17.1808 17.5814 17.3078 17.6343C17.4347 17.6871 17.5708 17.7144 17.7084 17.7144C17.8459 17.7144 17.982 17.6871 18.109 17.6343C18.2359 17.5814 18.3511 17.5039 18.4479 17.4063L22.6146 13.2396C22.7094 13.1405 22.7838 13.0237 22.8334 12.8958C22.9375 12.6422 22.9375 12.3578 22.8334 12.1042C22.7838 11.9763 22.7094 11.8595 22.6146 11.7604L18.4479 7.59375C18.3508 7.49663 18.2355 7.41958 18.1086 7.36702C17.9817 7.31446 17.8457 7.28741 17.7084 7.28741C17.571 7.28741 17.435 7.31446 17.3081 7.36702C17.1812 7.41958 17.0659 7.49663 16.9688 7.59375C16.8717 7.69087 16.7946 7.80618 16.742 7.93307C16.6895 8.05997 16.6624 8.19598 16.6624 8.33333C16.6624 8.47069 16.6895 8.6067 16.742 8.73359C16.7946 8.86049 16.8717 8.97579 16.9688 9.07292ZM10.4167 21.875C10.4167 21.5987 10.3069 21.3338 10.1116 21.1384C9.91624 20.9431 9.65129 20.8333 9.37503 20.8333H5.20836C4.93209 20.8333 4.66714 20.7236 4.47179 20.5282C4.27644 20.3329 4.16669 20.0679 4.16669 19.7917L4.16669 5.20833C4.16669 4.93207 4.27644 4.66711 4.47179 4.47176C4.66714 4.27641 4.93209 4.16667 5.20836 4.16667H9.37503C9.65129 4.16667 9.91624 4.05692 10.1116 3.86157C10.3069 3.66622 10.4167 3.40127 10.4167 3.125C10.4167 2.84873 10.3069 2.58378 10.1116 2.38843C9.91624 2.19308 9.65129 2.08333 9.37503 2.08333L5.20836 2.08333C4.37956 2.08333 3.5847 2.41257 2.99865 2.99862C2.4126 3.58468 2.08336 4.37953 2.08336 5.20833L2.08336 19.7917C2.08336 20.6205 2.4126 21.4153 2.99865 22.0014C3.5847 22.5874 4.37956 22.9167 5.20836 22.9167H9.37503C9.65129 22.9167 9.91624 22.8069 10.1116 22.6116C10.3069 22.4162 10.4167 22.1513 10.4167 21.875Z" fill="black"/>
</svg>
